<svg xmlns="http://www.w3.org/2000/svg" viewBox="0 0 292.35 76.77"><g data-name="Слой 1"><path d="M274.77 274.28V321a15 15 0 0 0 15 15h46.71a15 15 0 0 0 15-15v-61.75H289.8a15 15 0 0 0-15.03 15.03Zm19.85 11 16.38 1.3a1.18 1.18 0 0 1 .86 1.89l-.53.7a7.29 7.29 0 0 1-5.44 2.89l-7 .59a1.1 1.1 0 0 0-1.06 1.42c.35 1.15.86 2.67 1.24 3.7a65.9 65.9 0 0 0 4 9.05c.17.35.37.69.56 1a51.29 51.29 0 0 0 4.54 6.8l.25.33c.6.76 1.23 1.51 1.89 2.23a1.11 1.11 0 0 0 1.84-.3c.18-.43.38-.87.58-1.31 1-2.24 9-21.2 13.88-31l-8.5 2.76 18.83-18.95-4.32 26.37-2.69-8.32c-4 10-8.46 24.86-12.58 37.09a5.23 5.23 0 0 1-8.31 2 52 52 0 0 1-4.75-4.76c-8.91-10-13-21.91-14.71-29a5 5 0 0 1-.11-1.79 5.23 5.23 0 0 1 5.18-4.65Z" transform="translate(-274.77 -259.25)" style="fill:#250625"/><path style="fill:#250625" d="M113.95 45.71h-.71l-8.58-21.31h-8.33l12.27 27.92h9.84l12.12-27.92h-8.13l-8.48 21.31zM141.87 41.52h16.4v-6.67h-16.4v-3.78h18.27V24.4h-25.69v27.92h26.35v-6.87h-18.93v-3.93z"/><path d="M454.8 289.56a10.14 10.14 0 0 1 5.23 1.19 11.59 11.59 0 0 1 3.56 3.46l5.75-3.28Q465 283 454.9 283a18 18 0 0 0-6.19 1 15.31 15.31 0 0 0-5 2.93 13.5 13.5 0 0 0-3.35 4.59 14.64 14.64 0 0 0-1.22 6.08 15 15 0 0 0 1.2 6.11 13.24 13.24 0 0 0 3.3 4.62 14.58 14.58 0 0 0 5 2.9 18.81 18.81 0 0 0 6.26 1 17.84 17.84 0 0 0 8.66-2 14.13 14.13 0 0 0 5.73-6l-5.76-3.23a10.17 10.17 0 0 1-3.5 3.43 10.5 10.5 0 0 1-5.23 1.16 9.24 9.24 0 0 1-3.33-.58 7.46 7.46 0 0 1-2.6-1.64 7.34 7.34 0 0 1-1.69-2.55 8.69 8.69 0 0 1-.61-3.31 7.82 7.82 0 0 1 2.24-5.91 8.25 8.25 0 0 1 5.99-2.04Z" transform="translate(-274.77 -259.25)" style="fill:#250625"/><path style="fill:#250625" d="M197.45 31.07h10.86v21.25h7.42V31.07h10.85V24.4h-29.13v6.67z"/><path d="M530.71 287a15.5 15.5 0 0 0-5-3 17.36 17.36 0 0 0-11.95 0 15.57 15.57 0 0 0-5 3 14.44 14.44 0 0 0-3.43 4.62 14.55 14.55 0 0 0 0 12 14.38 14.38 0 0 0 3.43 4.62 15.48 15.48 0 0 0 5 3 17.36 17.36 0 0 0 11.95 0 15.41 15.41 0 0 0 5-3 14.38 14.38 0 0 0 3.43-4.62 14.55 14.55 0 0 0 0-12 14.43 14.43 0 0 0-3.43-4.62Zm-3.34 14.06a7.75 7.75 0 0 1-1.74 2.63 7.63 7.63 0 0 1-2.63 1.67 9.37 9.37 0 0 1-6.49 0 7.91 7.91 0 0 1-2.62-1.67 7.53 7.53 0 0 1-1.77-2.63 9.79 9.79 0 0 1 0-6.92 7.58 7.58 0 0 1 1.77-2.63 7.94 7.94 0 0 1 2.62-1.66 9.33 9.33 0 0 1 6.49 0 7.65 7.65 0 0 1 2.63 1.66 7.8 7.8 0 0 1 1.74 2.63 9.8 9.8 0 0 1 0 6.92ZM567.12 293.12a9.48 9.48 0 0 0-9.47-9.47H540v27.92h7.42v-9h6.84l4.79 9h8.06l-5.49-9.87a9.47 9.47 0 0 0 5.5-8.58Zm-9.47 2.71h-10.26v-5.41h10.26a2.71 2.71 0 1 1 0 5.41Z" transform="translate(-274.77 -259.25)" style="fill:#250625"/></g></svg>