<svg xmlns="http://www.w3.org/2000/svg" viewBox="0 0 310.277 310.277" style="enable-background:new 0 0 310.277 310.277" xml:space="preserve"><path style="fill:#250625" d="M155.139 0C69.598 0 0 69.598 0 155.139c0 85.547 69.598 155.139 155.139 155.139s155.139-69.592 155.139-155.139C310.283 69.592 240.686 0 155.139 0zm-5.848 227.815c-7.309 0-12.322-5.639-12.322-12.948 0-7.727 5.227-13.157 12.536-13.157 7.315 0 12.322 5.43 12.322 13.157-.005 7.309-4.809 12.948-12.536 12.948zm20.258-78.321c-9.183 10.86-12.53 20.049-11.904 30.706l.209 5.43h-16.29l-.418-5.43c-1.253-11.283 2.506-23.599 12.954-36.135 9.404-11.069 14.625-19.219 14.625-28.617 0-10.651-6.689-17.751-19.852-17.96-7.518 0-15.872 2.506-21.093 6.474l-5.012-13.157c6.892-5.012 18.796-8.354 29.87-8.354 24.023 0 34.882 14.828 34.882 30.706.001 14.2-7.941 24.433-17.971 36.337z"/></svg>