<svg aria-hidden="true" style="position: absolute; width: 0; height: 0; overflow: hidden;" version="1.1" xmlns="http://www.w3.org/2000/svg" xmlns:xlink="http://www.w3.org/1999/xlink">
<defs>
<symbol id="sprite-np-logo" viewBox="0 0 32 32">
<path fill="#da291c" style="fill: var(--color1, #da291c)" d="M15.92 1.464c-0.512 0.084-0.856 0.22-1.18 0.468-0.18 0.136-0.148 0.104-2.296 2.308-0.848 0.868-1.776 1.82-2.060 2.108l-0.52 0.532h3.736v6h5v-6l1.88-0.008 1.876-0.012-0.384-0.4c-0.48-0.496-3.248-3.328-3.952-4.044-0.536-0.54-0.732-0.684-1.156-0.84-0.236-0.084-0.74-0.144-0.944-0.112zM6.636 10.188c-0.364 0.368-1.064 1.084-1.56 1.592-0.492 0.504-1.232 1.26-1.644 1.68-0.412 0.416-0.792 0.812-0.852 0.88-0.6 0.696-0.74 1.724-0.344 2.556 0.22 0.464 0.14 0.376 2.54 2.824 0.44 0.452 1.188 1.216 1.656 1.696 0.472 0.48 0.864 0.864 0.872 0.852 0.008-0.008 0.012-2.88 0.008-6.384l-0.012-6.368-0.664 0.672zM24.88 15.888c0 3.516 0.008 6.392 0.016 6.392 0.012 0 1.5-1.5 1.984-2 0.116-0.12 0.764-0.788 1.44-1.48 0.68-0.692 1.288-1.332 1.36-1.416 0.3-0.38 0.52-1.016 0.52-1.504 0-0.476-0.18-1.004-0.468-1.388-0.144-0.192-1.924-2.032-3.98-4.112l-0.872-0.88v6.388zM13.6 21.88v3l-1.876 0.008-1.88 0.012 0.464 0.48c0.64 0.664 3.148 3.232 3.852 3.944 0.508 0.512 0.616 0.604 0.88 0.728 0.42 0.2 0.604 0.24 1.040 0.244 0.444 0 0.852-0.12 1.228-0.36 0.132-0.084 0.632-0.56 1.208-1.148 0.54-0.552 1.392-1.42 1.888-1.928 0.496-0.504 1.128-1.156 1.408-1.44l0.504-0.52-1.856-0.012-1.86-0.008v-6h-5v3z"></path>
</symbol>
<symbol id="sprite-logo-white" viewBox="0 0 122 32">
<path fill="#fff" style="fill: var(--color2, #fff)" d="M0 6.265v19.474c0 3.453 2.799 6.252 6.252 6.252v0h19.47c3.453 0 6.252-2.799 6.252-6.252v0-25.739h-25.71c-0.004 0-0.008 0-0.013 0-3.453 0-6.252 2.799-6.252 6.252 0 0.004 0 0.009 0 0.013v-0.001zM8.274 10.85l6.828 0.542c0.257 0.018 0.458 0.231 0.458 0.491 0 0.112-0.038 0.216-0.101 0.298l0.001-0.001-0.221 0.292c-0.529 0.696-1.34 1.155-2.26 1.204l-0.008 0-2.918 0.246c-0.001 0-0.002 0-0.003 0-0.253 0-0.459 0.205-0.459 0.459 0 0.048 0.007 0.094 0.021 0.137l-0.001-0.003c0.146 0.479 0.358 1.113 0.517 1.542 0.529 1.481 1.091 2.725 1.739 3.917l-0.072-0.144c0.071 0.146 0.154 0.288 0.233 0.417 0.607 1.080 1.233 2.007 1.926 2.878l-0.034-0.044 0.104 0.138c0.25 0.317 0.513 0.629 0.788 0.93 0.085 0.094 0.207 0.152 0.343 0.152 0.188 0 0.351-0.113 0.423-0.274l0.001-0.003c0.075-0.179 0.158-0.363 0.242-0.546 0.417-0.934 3.751-8.837 5.786-12.922l-3.543 1.15 7.849-7.899-1.801 10.992-1.121-3.468c-1.667 4.168-3.526 10.362-5.244 15.46-0.329 0.812-1.112 1.375-2.026 1.375-0.552 0-1.056-0.205-1.44-0.544l0.002 0.002c-0.709-0.625-1.355-1.273-1.959-1.96l-0.021-0.024c-3.714-4.168-5.419-9.133-6.132-12.088-0.038-0.15-0.061-0.322-0.061-0.499 0-0.087 0.005-0.173 0.016-0.257l-0.001 0.010c0.125-1.093 1.043-1.934 2.159-1.938h0z"></path>
<path fill="#fff" style="fill: var(--color2, #fff)" d="M47.498 19.053h-0.296l-3.576-8.883h-3.472l5.114 11.638h4.102l5.052-11.638h-3.389l-3.535 8.883zM59.136 17.307h6.836v-2.78h-6.836v-1.576h7.615v-2.78h-10.708v11.638h10.983v-2.864h-7.891v-1.638z"></path>
<path fill="#fff" style="fill: var(--color2, #fff)" d="M75.042 12.634c0.055-0.003 0.12-0.004 0.186-0.004 0.73 0 1.417 0.185 2.017 0.511l-0.022-0.011c0.598 0.375 1.094 0.858 1.473 1.425l0.011 0.018 2.397-1.367q-1.809-3.305-6.019-3.305c-0.033-0.001-0.072-0.001-0.112-0.001-0.884 0-1.733 0.153-2.521 0.434l0.052-0.016c-0.804 0.289-1.497 0.704-2.091 1.227l0.007-0.006c-0.585 0.523-1.057 1.16-1.382 1.878l-0.014 0.035c-0.322 0.719-0.509 1.558-0.509 2.441 0 0.033 0 0.066 0.001 0.099l-0-0.005c-0 0.028-0.001 0.061-0.001 0.095 0 0.886 0.184 1.729 0.517 2.492l-0.016-0.040c0.329 0.758 0.795 1.4 1.371 1.922l0.005 0.004c0.585 0.52 1.279 0.932 2.041 1.196l0.043 0.013c0.753 0.265 1.62 0.417 2.524 0.417 0.030 0 0.060-0 0.090-0l-0.005 0c0.055 0.001 0.12 0.002 0.184 0.002 1.252 0 2.431-0.309 3.466-0.855l-0.041 0.020c1.030-0.584 1.848-1.439 2.373-2.468l0.015-0.033-2.401-1.346c-0.368 0.591-0.859 1.072-1.439 1.419l-0.019 0.011c-0.583 0.307-1.274 0.487-2.006 0.487-0.061 0-0.122-0.001-0.182-0.004l0.009 0c-0.013 0-0.029 0-0.044 0-0.483 0-0.945-0.089-1.37-0.251l0.026 0.009c-0.422-0.159-0.783-0.391-1.085-0.684l0.001 0.001c-0.299-0.294-0.538-0.648-0.697-1.042l-0.007-0.021c-0.161-0.395-0.255-0.854-0.255-1.334 0-0.016 0-0.032 0-0.048l-0 0.002c-0.003-0.052-0.005-0.113-0.005-0.175 0-0.892 0.358-1.7 0.939-2.289l-0 0c0.603-0.533 1.4-0.858 2.272-0.858 0.079 0 0.157 0.003 0.235 0.008l-0.011-0.001z"></path>
<path fill="#fff" style="fill: var(--color2, #fff)" d="M82.303 12.951h4.527v8.858h3.093v-8.858h4.523v-2.78h-12.142v2.78z"></path>
<path fill="#fff" style="fill: var(--color2, #fff)" d="M106.683 11.567c-0.587-0.527-1.279-0.951-2.040-1.236l-0.045-0.015c-0.741-0.28-1.597-0.442-2.491-0.442s-1.75 0.162-2.54 0.459l0.050-0.016c-0.805 0.3-1.497 0.724-2.090 1.256l0.006-0.005c-0.59 0.531-1.071 1.171-1.414 1.889l-0.016 0.036c-0.341 0.735-0.54 1.595-0.54 2.501s0.199 1.766 0.555 2.539l-0.016-0.038c0.358 0.755 0.839 1.395 1.424 1.921l0.005 0.005c0.587 0.527 1.279 0.951 2.040 1.236l0.045 0.015c0.741 0.28 1.597 0.442 2.491 0.442s1.75-0.162 2.54-0.459l-0.050 0.016c0.805-0.299 1.497-0.723 2.090-1.256l-0.006 0.005c0.591-0.531 1.072-1.171 1.414-1.89l0.016-0.036c0.341-0.735 0.54-1.595 0.54-2.501s-0.199-1.766-0.555-2.539l0.016 0.038c-0.358-0.755-0.839-1.394-1.424-1.921l-0.005-0.005zM105.291 17.428c-0.173 0.428-0.419 0.792-0.725 1.096l-0 0c-0.305 0.297-0.67 0.533-1.075 0.689l-0.022 0.007c-0.402 0.153-0.867 0.242-1.353 0.242s-0.951-0.089-1.379-0.251l0.027 0.009c-0.424-0.167-0.787-0.403-1.093-0.697l0.001 0.001c-0.313-0.302-0.564-0.667-0.73-1.075l-0.008-0.021c-0.167-0.428-0.263-0.924-0.263-1.442s0.097-1.014 0.273-1.47l-0.009 0.028c0.175-0.429 0.425-0.794 0.737-1.095l0.001-0.001c0.305-0.291 0.668-0.526 1.070-0.684l0.022-0.008c0.402-0.154 0.867-0.243 1.353-0.243s0.951 0.089 1.379 0.252l-0.027-0.009c0.426 0.162 0.791 0.397 1.097 0.693l-0.001-0.001c0.306 0.304 0.551 0.669 0.717 1.075l0.008 0.022c0.167 0.428 0.263 0.924 0.263 1.442s-0.097 1.014-0.273 1.47l0.009-0.028zM121.86 14.118c-0.002-2.179-1.768-3.945-3.947-3.947h-7.357v11.638h3.093v-3.751h2.851l1.997 3.751h3.36l-2.288-4.114c1.362-0.64 2.29-2 2.293-3.576v-0zM117.913 15.248h-4.277v-2.255h4.277c0.020-0.001 0.044-0.002 0.069-0.002 0.624 0 1.13 0.506 1.13 1.13s-0.506 1.13-1.13 1.13c-0.024 0-0.048-0.001-0.072-0.002l0.003 0z"></path>
</symbol>
<symbol id="sprite-calculator" viewBox="0 0 32 32">
<path fill="#250625" style="fill: var(--color3, #250625)" d="M26.769 0h-21.538c-0.79 0-1.424 0.633-1.424 1.424v29.153c0 0.79 0.633 1.424 1.424 1.424h21.538c0.79 0 1.424-0.633 1.424-1.424v-29.153c0-0.79-0.64-1.424-1.424-1.424zM9.117 28.904c-1.038 0-1.907-0.836-1.907-1.907 0-1.038 0.836-1.907 1.907-1.907s1.907 0.836 1.907 1.907c0 1.064-0.862 1.907-1.907 1.907zM9.117 22.629c-1.038 0-1.907-0.836-1.907-1.907 0-1.064 0.836-1.907 1.907-1.907s1.907 0.836 1.907 1.907-0.862 1.907-1.907 1.907zM9.117 16.333c-1.038 0-1.907-0.836-1.907-1.907s0.836-1.907 1.907-1.907 1.907 0.836 1.907 1.907-0.862 1.907-1.907 1.907zM16 28.904c-1.038 0-1.907-0.836-1.907-1.907 0-1.038 0.836-1.907 1.907-1.907 1.064 0 1.907 0.836 1.907 1.907 0 1.064-0.869 1.907-1.907 1.907zM16 22.629c-1.038 0-1.907-0.836-1.907-1.907 0-1.064 0.836-1.907 1.907-1.907 1.064 0 1.907 0.836 1.907 1.907s-0.869 1.907-1.907 1.907zM16 16.333c-1.038 0-1.907-0.836-1.907-1.907s0.836-1.907 1.907-1.907c1.064 0 1.907 0.836 1.907 1.907s-0.869 1.907-1.907 1.907zM22.883 28.904c-1.038 0-1.907-0.836-1.907-1.907 0-1.038 0.836-1.907 1.907-1.907s1.907 0.836 1.907 1.907c-0.026 1.064-0.869 1.907-1.907 1.907zM22.883 22.629c-1.038 0-1.907-0.836-1.907-1.907 0-1.064 0.836-1.907 1.907-1.907s1.907 0.836 1.907 1.907-0.869 1.907-1.907 1.907zM22.883 16.333c-1.038 0-1.907-0.836-1.907-1.907s0.836-1.907 1.907-1.907 1.907 0.836 1.907 1.907-0.869 1.907-1.907 1.907zM24.914 9.267h-17.829v-6.171h17.855v6.171h-0.026z"></path>
</symbol>
<symbol id="sprite-logo-dark" viewBox="0 0 122 32">
<path fill="#250625" style="fill: var(--color3, #250625)" d="M0 6.272v19.456c0 3.456 2.816 6.272 6.272 6.272h19.456c3.456 0 6.272-2.816 6.272-6.272v-25.728h-25.728c-3.456 0-6.272 2.816-6.272 6.272zM8.256 10.88l6.848 0.512c0.256 0 0.448 0.256 0.448 0.512 0 0.064-0.064 0.192-0.128 0.256l-0.192 0.32c-0.512 0.704-1.344 1.152-2.24 1.216l-2.944 0.256c-0.256 0-0.448 0.192-0.448 0.448v0.128c0.128 0.448 0.384 1.088 0.512 1.536 0.448 1.28 1.024 2.56 1.664 3.776 0.064 0.128 0.128 0.256 0.256 0.448 0.576 1.024 1.216 1.92 1.92 2.816l0.128 0.128 0.768 0.96c0.192 0.192 0.448 0.192 0.64 0.064 0.064-0.064 0.064-0.128 0.128-0.128 0.064-0.192 0.128-0.384 0.256-0.576 0.448-0.96 3.776-8.832 5.76-12.928l-3.52 1.152 7.808-8-1.792 11.008-1.152-3.456c-1.664 4.16-3.52 10.368-5.248 15.488-0.448 1.088-1.728 1.664-2.816 1.216-0.256-0.064-0.448-0.192-0.64-0.384-0.704-0.64-1.344-1.28-1.984-1.984-3.712-4.16-5.44-9.152-6.144-12.096-0.064-0.256-0.064-0.512-0.064-0.768 0.128-1.088 1.088-1.92 2.176-1.92zM47.488 19.072h-0.32l-3.584-8.896h-3.456l5.12 11.648h4.096l5.056-11.648h-3.392l-3.52 8.896zM59.136 17.28h6.848v-2.752h-6.848v-1.6h7.616v-2.752h-10.688v11.648h11.008v-2.88h-7.872l-0.064-1.664zM75.008 12.608c0.768-0.064 1.536 0.128 2.176 0.512 0.576 0.384 1.088 0.832 1.472 1.472l2.368-1.344c-1.216-2.176-3.2-3.328-6.016-3.328-0.896 0-1.728 0.128-2.56 0.448-0.768 0.256-1.472 0.704-2.112 1.216-0.576 0.512-1.088 1.152-1.408 1.92s-0.512 1.664-0.512 2.56 0.128 1.728 0.512 2.56c0.32 0.704 0.768 1.408 1.344 1.92s1.344 0.96 2.112 1.216c0.832 0.256 1.728 0.448 2.624 0.448 1.28 0 2.496-0.256 3.584-0.832 1.024-0.576 1.856-1.472 2.368-2.496l-2.432-1.344c-0.384 0.576-0.832 1.088-1.472 1.408-0.704 0.32-1.408 0.512-2.176 0.512-0.448 0-0.96-0.064-1.408-0.256-0.384-0.128-0.768-0.384-1.088-0.704s-0.576-0.64-0.704-1.088c-0.192-0.448-0.256-0.896-0.256-1.408-0.064-0.896 0.32-1.792 0.96-2.432 0.832-0.704 1.728-1.024 2.624-0.96zM82.304 12.928h4.544v8.832h3.072v-8.832h4.544v-2.752h-12.16v2.752zM106.688 11.584c-0.64-0.576-1.344-0.96-2.112-1.28-1.6-0.576-3.392-0.576-4.992 0-0.768 0.256-1.472 0.704-2.112 1.28-0.576 0.512-1.088 1.216-1.408 1.92-0.334 0.734-0.528 1.592-0.528 2.496s0.194 1.762 0.544 2.535l-0.016-0.039c0.32 0.704 0.832 1.408 1.408 1.92 0.64 0.576 1.344 0.96 2.112 1.28 1.6 0.576 3.392 0.576 4.992 0 0.768-0.256 1.472-0.704 2.112-1.28 0.576-0.512 1.088-1.216 1.408-1.92 0.704-1.6 0.704-3.392 0-4.992-0.32-0.768-0.832-1.408-1.408-1.92zM105.28 17.408c-0.192 0.384-0.384 0.768-0.704 1.088s-0.704 0.512-1.088 0.704c-0.896 0.32-1.856 0.32-2.688 0-0.384-0.128-0.768-0.384-1.088-0.704s-0.576-0.704-0.768-1.088c-0.32-0.96-0.32-1.984 0-2.88 0.192-0.384 0.448-0.768 0.768-1.088s0.704-0.512 1.088-0.704c0.896-0.32 1.856-0.32 2.688 0 0.384 0.128 0.768 0.384 1.088 0.704s0.576 0.704 0.704 1.088c0.32 0.96 0.32 1.984 0 2.88zM121.856 14.144c0-2.176-1.792-3.968-3.968-3.968h-7.36v11.648h3.072v-3.776h2.88l1.984 3.776h3.328l-2.304-4.096c1.472-0.704 2.368-2.048 2.368-3.584zM117.888 15.232h-4.288v-2.24h4.288c0.64-0.064 1.152 0.448 1.216 1.088s-0.448 1.152-1.088 1.216c0-0.064-0.064-0.064-0.128-0.064z"></path>
</symbol>
<symbol id="sprite-zappos" viewBox="0 0 90 32">
<path fill="#250625" style="fill: var(--color3, #250625)" d="M47.262 24.374h26.722c0.613 0 1.132 0.564 1.132 1.228v5.195c0 0.666-0.519 1.203-1.132 1.203h-26.722c-0.614 0-1.132-0.537-1.132-1.203v-5.195c0-0.664 0.518-1.228 1.132-1.228z"></path>
<path fill="#fff" style="fill: var(--color2, #fff)" d="M57.451 25.859l-0.544 0.946c-0.306-0.307-0.707-0.436-1.226-0.436-0.496 0-0.873 0.155-1.156 0.487-0.283 0.333-0.425 0.768-0.425 1.356 0 1.152 0.542 1.741 1.651 1.741 0.496 0 0.92-0.179 1.274-0.486l0.471 1.022c-0.377 0.231-0.707 0.386-0.99 0.436-0.259 0.077-0.615 0.101-0.992 0.101-0.848 0-1.532-0.255-2.028-0.741-0.495-0.511-0.732-1.203-0.732-2.073s0.26-1.586 0.802-2.098c0.542-0.538 1.298-0.793 2.217-0.793 0.661 0 1.203 0.179 1.675 0.538zM59.527 28.137c0 1.228 0.448 1.841 1.32 1.841 0.401 0 0.731-0.178 0.968-0.485s0.353-0.769 0.353-1.356c0-1.203-0.448-1.791-1.321-1.791-0.4 0-0.731 0.153-0.967 0.46-0.235 0.333-0.353 0.767-0.353 1.331zM58.182 28.137c0-0.845 0.236-1.51 0.73-2.022 0.495-0.538 1.132-0.793 1.934-0.793 0.849 0 1.486 0.255 1.958 0.768 0.471 0.461 0.708 1.177 0.708 2.047 0 0.895-0.236 1.587-0.731 2.098-0.472 0.537-1.109 0.792-1.935 0.792-0.849 0-1.509-0.255-1.958-0.792-0.471-0.512-0.707-1.228-0.707-2.098zM70.965 30.926v-3.481c0-0.716-0.33-1.075-0.99-1.075-0.188 0-0.377 0.052-0.566 0.181-0.165 0.102-0.283 0.231-0.378 0.383v3.992h-1.273v-3.659c0-0.282-0.095-0.512-0.261-0.666-0.164-0.153-0.4-0.231-0.707-0.231-0.166 0-0.354 0.052-0.543 0.181-0.188 0.127-0.33 0.256-0.424 0.383v3.992h-1.273v-5.501h0.873l0.282 0.487c0.354-0.41 0.802-0.589 1.392-0.589 0.73 0 1.274 0.205 1.651 0.589 0.165-0.18 0.377-0.334 0.684-0.436 0.282-0.103 0.566-0.153 0.872-0.153 0.614 0 1.085 0.179 1.439 0.512 0.33 0.359 0.519 0.818 0.519 1.433v3.659h-1.298zM49.196 27.267c0.755 0 1.392 0.691 1.392 1.561 0 0.843-0.637 1.534-1.392 1.534-0.778 0-1.415-0.691-1.415-1.534 0-0.87 0.637-1.561 1.415-1.561z"></path>
<path fill="#250625" style="fill: var(--color3, #250625)" d="M86.63 18.771c-0.144 0.446-0.288 0.893-0.461 1.33-0.019 0.047-0.196 0.52-0.223 0.514-0.014-0.003-0.029-0.006-0.043-0.009-0.229-0.049-0.457-0.098-0.686-0.146-0.91-0.194-1.819-0.388-2.729-0.581-0.806-0.172-1.612-0.344-2.418-0.515-0.021-0.439-0.020-0.878-0.040-1.316-0.020-0.447 0.043-0.892 0.038-1.338 1.426 0.325 2.851 0.65 4.276 0.975 0.816 0.186 1.631 0.372 2.447 0.558-0.019 0.039-0.074 0.215-0.127 0.392l-0.035 0.137zM80.393 13.41c0.195-0.951 0.346-1.912 0.574-2.856 0.114-0.474 0.256-0.939 0.407-1.402 0.034-0.104 0.364-1.173 0.398-1.165 0.661 0.149 1.322 0.298 1.983 0.448 0.821 0.185 1.642 0.371 2.463 0.556l-5.901 4.987c0.025-0.189 0.051-0.378 0.077-0.567zM82.854 5.497c0.441-0.757 0.878-1.506 1.513-2.121 0.492-0.476 1.251-0.977 1.905-0.493 0.56 0.414 0.864 1.176 1.082 1.809 0.289 0.84 0.456 1.761 0.534 2.644-1.776-0.425-3.561-0.815-5.342-1.222 0.103-0.206 0.205-0.411 0.307-0.617zM81.895 14.976l6.115-5.505c0.012 1.122-0.023 2.245-0.149 3.36-0.126 1.122-0.329 2.239-0.559 3.344-1.49-0.33-2.98-0.661-4.471-0.991l-0.936-0.208zM86.313 0.060c-1.349-0.287-2.497 0.516-3.301 1.527-0.925 1.164-1.538 2.582-2.037 3.97-0.662 1.841-1.127 3.76-1.489 5.68-0.372 1.976-0.604 3.979-0.67 5.988-0.033 0.992-0.032 1.988 0.026 2.979 0.029 0.49 0.074 0.979 0.144 1.465 0.034 0.233 0.073 0.464 0.12 0.695 0.023 0.115 0.048 0.23 0.074 0.344 0.026 0.026 0.133-0.011 0.162-0.017 0.858-0.183 1.789-0.227 2.664-0.167 0.943 0.064 1.815 0.35 2.633 0.819 0.236 0.135 0.425 0.255 0.609 0.381l-0.030-0.019c0.123 0.084 0.217 0.151 0.309 0.22l-0.022-0.015c0.084 0.062 0.154 0.147 0.248 0.194 0.248-0.392 0.469-0.801 0.67-1.218 0.403-0.839 0.725-1.714 1.021-2.596 0.624-1.859 1.102-3.763 1.437-5.695 0.34-1.964 0.558-3.955 0.622-5.948 0.055-1.692-0.003-3.423-0.403-5.075-0.362-1.496-1.134-3.16-2.79-3.513zM13.938 22.701h-12.052c-0.52 0-0.968-0.179-1.345-0.537-0.354-0.359-0.542-0.767-0.542-1.228 0-0.513 0.212-1.177 0.66-2.021l8.632-16.607h-4.528c-1.156 0-1.958 0.204-2.382 0.588-0.425 0.385-0.661 1.15-0.684 2.354h-1.438v-5.195h10.802c1.628 0 2.453 0.666 2.453 1.971 0 0.383-0.117 0.843-0.377 1.33l-8.916 17.119h9.717v2.226zM21.84 18.888v-3.122c-2.477 0.153-3.727 1.075-3.727 2.815 0 1.381 0.472 2.099 1.416 2.099 1.014 0 1.768-0.614 2.312-1.791zM25.306 20.858h-1.651c-0.707 0-1.297 0.178-1.745 0.563-0.896 0.692-1.344 1.075-1.391 1.1-0.566 0.358-1.227 0.537-1.958 0.537-1.179 0-2.169-0.383-2.971-1.151s-1.203-1.689-1.203-2.764c0-3.147 2.5-4.862 7.453-5.117v-1.433c0-1.381-0.095-2.379-0.331-2.995-0.213-0.614-0.613-0.921-1.155-0.921s-0.92 0.257-1.085 0.818c-0.024 0.026-0.118 0.614-0.283 1.716-0.166 1.099-0.826 1.688-2.029 1.688l-1.91-1.97c0.047-1.203 0.543-2.175 1.485-2.892 0.968-0.742 2.241-1.099 3.845-1.099 1.792 0 3.066 0.459 3.82 1.33 0.731 0.896 1.108 2.405 1.108 4.503v8.086zM30.708 16.201c0 3.122 0.849 4.657 2.524 4.657 1.627 0 2.43-1.97 2.43-5.886 0-3.76-0.778-5.654-2.359-5.654-1.061 0-1.934 1.049-2.594 3.173zM27.312 9.777h0.448c0.212 0.027 0.354 0.027 0.425 0.027 0.966 0 1.603-0.129 1.958-0.385 0.589-0.537 1.202-1.073 1.839-1.638 0.684-0.537 1.463-0.793 2.335-0.793 1.581 0 2.83 0.691 3.75 2.124 0.919 1.434 1.392 3.404 1.392 5.936 0 2.612-0.496 4.633-1.462 6.066-0.967 1.407-2.335 2.123-4.080 2.123-1.321 0-2.383-0.537-3.208-1.586v6.089c0 0.538-0.165 0.974-0.472 1.331-0.33 0.359-0.731 0.538-1.202 0.538-0.496 0-0.897-0.179-1.227-0.563-0.33-0.358-0.495-0.792-0.495-1.306v-17.964zM44.27 16.201c0 3.122 0.826 4.657 2.524 4.657 1.627 0 2.429-1.97 2.429-5.886 0-3.76-0.802-5.654-2.381-5.654-1.061 0-1.91 1.049-2.571 3.173zM40.873 9.777h0.448c0.189 0.027 0.33 0.027 0.425 0.027 0.967 0 1.603-0.129 1.957-0.385 0.589-0.537 1.203-1.073 1.816-1.638 0.707-0.537 1.486-0.793 2.358-0.793 1.557 0 2.807 0.691 3.727 2.124 0.92 1.434 1.367 3.404 1.367 5.936 0 2.612-0.472 4.633-1.438 6.066-0.991 1.407-2.312 2.123-4.057 2.123-1.321 0-2.382-0.537-3.208-1.586v6.089c0 0.538-0.165 0.974-0.495 1.331-0.307 0.359-0.707 0.538-1.202 0.538-0.472 0-0.873-0.179-1.203-0.563-0.33-0.358-0.495-0.792-0.495-1.306v-17.964zM62.312 16.432c0-2.381-0.070-3.968-0.188-4.683-0.307-2.021-1.061-3.045-2.216-3.045-0.897 0-1.534 0.511-1.911 1.56-0.377 1.024-0.566 2.636-0.566 4.861 0 2.149 0.189 3.685 0.52 4.633 0.377 1.024 1.013 1.535 1.934 1.535 1.604 0 2.429-1.612 2.429-4.862zM65.709 15.126c0 5.272-1.958 7.933-5.826 7.933-3.892 0-5.849-2.661-5.849-7.933 0-5.45 1.957-8.187 5.849-8.187 1.791 0 3.207 0.716 4.268 2.174 1.038 1.434 1.557 3.455 1.557 6.013zM73.94 10.93c0-1.356-0.732-2.021-2.194-2.021-1.25 0-1.862 0.511-1.862 1.586 0 0.665 0.66 1.407 1.98 2.277 0.661 0.41 1.439 0.947 2.336 1.56 1.203 1.153 1.815 2.534 1.815 4.095 0 1.356-0.449 2.483-1.344 3.327s-2.052 1.253-3.491 1.253c-1.274 0-2.312-0.229-3.112-0.716-0.803-0.486-1.228-1.1-1.228-1.791 0-0.435 0.307-0.64 0.92-0.64 0.165 0 0.33 0 0.448 0.026 0.944 0.692 1.816 1.049 2.618 1.049 1.345 0 2.029-0.538 2.029-1.612 0-0.589-0.26-1.101-0.779-1.588-0.213-0.228-0.896-0.716-2.052-1.509s-1.981-1.509-2.453-2.149c-0.566-0.743-0.849-1.614-0.849-2.611 0-1.433 0.448-2.532 1.368-3.327 0.896-0.792 2.17-1.201 3.845-1.201 0.754 0 1.839 0.203 3.23 0.614v3.377h-1.226zM85.021 28.747c-0.269 1.995-2.061 3.4-4.005 3.139-1.942-0.261-3.298-2.091-3.029-4.084s2.059-3.398 4.002-3.137c1.943 0.262 3.3 2.089 3.032 4.082z"></path>
</symbol>
<symbol id="sprite-walmartLogo" viewBox="0 0 134 32">
<path fill="#250625" style="fill: var(--color3, #250625)" d="M77.429 17.029c0-3.143-1.371-5.943-5.943-5.943-2.343 0-4.229 0.686-5.2 1.257l0.743 2.514c0.914-0.571 2.4-1.086 3.829-1.086 2.343 0 2.686 1.314 2.686 2.171v0.229c-5.029 0-8.229 1.714-8.229 5.314 0 2.171 1.6 4.229 4.457 4.229 1.714 0 3.2-0.686 4.057-1.829h0.057s0.571 2.4 3.771 1.486c-0.171-1.029-0.229-2.057-0.229-3.371v-4.971zM73.657 20.343c0 0.229 0 0.514-0.114 0.743-0.286 0.971-1.314 1.771-2.571 1.771-1.029 0-1.886-0.571-1.886-1.829 0-1.886 2.114-2.457 4.514-2.4zM0 6.8s3.314 13.486 3.829 15.714c0.629 2.571 1.714 3.486 4.914 2.857l2.057-8.4c0.514-2.057 0.857-3.543 1.2-5.657h0.057c0.229 2.114 0.571 3.6 0.971 5.714 0 0 0.857 3.829 1.257 5.829s1.6 3.257 4.743 2.571l4.914-18.571h-3.943l-1.714 8.057c-0.457 2.343-0.857 4.171-1.143 6.286-0.286-2.114-0.629-3.886-1.086-6.171l-1.771-8.229h-4.114l-1.886 8c-0.514 2.457-1.029 4.4-1.314 6.457h-0.057c-0.343-1.943-0.743-4.4-1.2-6.743 0 0-1.086-5.714-1.486-7.657zM35.086 17.029c0-3.143-1.371-5.943-5.943-5.943-2.343 0-4.229 0.686-5.2 1.257l0.743 2.514c0.914-0.571 2.4-1.086 3.829-1.086 2.343 0 2.686 1.314 2.686 2.171v0.229c-5.029 0-8.229 1.714-8.229 5.314 0 2.171 1.657 4.229 4.457 4.229 1.771 0 3.2-0.686 4.057-1.829h0.114s0.571 2.4 3.771 1.486c-0.171-1.029-0.229-2.057-0.229-3.371v-4.971zM31.314 20.343c0 0.229 0 0.514-0.114 0.743-0.286 0.971-1.314 1.771-2.571 1.771-1.029 0-1.886-0.571-1.886-1.829 0-1.886 2.114-2.457 4.514-2.4zM37.143 6.8v18.571h3.771v-18.571zM89.029 6.8v13.714c0 1.886 0.343 3.2 1.143 4 0.686 0.686 1.771 1.143 3.086 1.143 1.143 0 2.229-0.229 2.743-0.4l-0.057-2.971c-0.4 0.114-0.857 0.171-1.429 0.171-1.314 0-1.714-0.8-1.714-2.514v-5.257h3.314v-3.543h-3.314v-4.4zM79.257 11.429v13.943h3.886v-7.143c0-0.4 0-0.743 0.057-1.029 0.286-1.486 1.429-2.457 3.086-2.457 0.457 0 0.8 0.057 1.143 0.114v-3.657c-0.286-0.057-0.514-0.057-0.857-0.057-1.486 0-3.143 0.914-3.829 2.971h-0.114v-2.686zM43.143 11.429v13.943h3.829v-8.229c0-0.4 0.057-0.8 0.171-1.143 0.286-0.857 1.086-1.771 2.286-1.771 1.543 0 2.229 1.314 2.229 3.143v7.943h3.771v-8.229c0-0.343 0.057-0.8 0.171-1.143 0.286-0.914 1.143-1.714 2.286-1.714 1.543 0 2.286 1.257 2.286 3.486v7.657h3.771v-8.229c0-4.343-2.171-6.057-4.686-6.057-1.086 0-1.943 0.286-2.743 0.743-0.686 0.4-1.257 0.971-1.771 1.714h-0.057c-0.629-1.486-2-2.514-3.829-2.514-2.343 0-3.429 1.2-4.057 2.229h-0.057v-1.829zM116.457 10.8c0.743 0 1.371-0.4 1.429-0.914l0.743-8.4c0-0.857-0.971-1.486-2.171-1.486s-2.171 0.686-2.171 1.486l0.743 8.4c0.057 0.514 0.686 0.914 1.429 0.914zM111.886 13.371c0.343-0.629 0.343-1.371-0.057-1.714l-6.857-4.8c-0.743-0.4-1.771 0.057-2.4 1.143-0.629 1.029-0.514 2.229 0.229 2.629l7.657 3.543c0.457 0.229 1.086-0.114 1.429-0.8zM120.971 13.371c0.4 0.629 1.029 0.971 1.486 0.8l7.657-3.543c0.686-0.4 0.8-1.6 0.229-2.629-0.629-1.029-1.714-1.543-2.4-1.143l-6.914 4.8c-0.4 0.343-0.4 1.086-0.057 1.714zM116.457 21.257c0.743 0 1.371 0.4 1.429 0.914l0.743 8.4c0 0.857-0.971 1.486-2.171 1.486s-2.171-0.686-2.171-1.486l0.743-8.4c0.057-0.571 0.686-0.914 1.429-0.914zM120.971 18.629c0.4-0.629 1.029-0.971 1.486-0.8l7.657 3.543c0.686 0.4 0.8 1.6 0.229 2.629-0.629 1.029-1.714 1.543-2.4 1.143l-6.914-4.857c-0.4-0.286-0.4-1.029-0.057-1.657zM111.886 18.629c0.343 0.629 0.343 1.371-0.057 1.714l-6.857 4.8c-0.743 0.4-1.771-0.057-2.4-1.143-0.629-1.029-0.514-2.229 0.229-2.629l7.657-3.543c0.457-0.229 1.086 0.114 1.429 0.8zM132.343 24.4h0.114c0.114 0 0.171 0.057 0.171 0.171s0.057 0.171 0.057 0.229h0.229s-0.057-0.114-0.057-0.229-0.114-0.171-0.171-0.229c0.114 0 0.171-0.114 0.171-0.229s-0.057-0.171-0.057-0.229c-0.057-0.057-0.171-0.057-0.343-0.057s-0.286 0-0.343 0.057v0.914h0.229v-0.4zM132.4 24h0.114c0.114 0 0.229 0.057 0.229 0.171s-0.114 0.114-0.229 0.114h-0.114v-0.286zM132.514 23.371c-0.514 0-0.971 0.4-0.971 0.914s0.4 0.971 0.971 0.971 0.971-0.4 0.971-0.971c0-0.514-0.4-0.914-0.971-0.914zM132.514 23.543c0.4 0 0.743 0.343 0.743 0.743s-0.286 0.743-0.743 0.743c-0.4 0-0.743-0.343-0.743-0.743s0.343-0.743 0.743-0.743z"></path>
</symbol>
<symbol id="sprite-macy-s-seeklogo" viewBox="0 0 114 32">
<path d="M111.963 18.042c-0.859-0.649-1.896-0.932-2.91-1.206l-0.11-0.032c-1.051-0.292-1.668-0.562-2.070-0.909-0.416-0.352-0.612-0.818-0.649-1.512-0.014-0.306 0.027-0.617 0.132-0.905 0.1-0.274 0.256-0.525 0.457-0.736 0.233-0.247 0.521-0.434 0.836-0.557 0.37-0.137 0.758-0.206 1.151-0.201 0.347-0.014 0.694 0.041 1.019 0.16 0.283 0.101 0.544 0.26 0.758 0.471 0.206 0.206 0.365 0.452 0.466 0.726 0.119 0.329 0.178 0.676 0.178 1.028l0.014 0.676h1.96l-0.009-0.699c-0.023-1.243-0.452-2.312-1.247-3.079-0.786-0.763-1.878-1.174-3.152-1.192-1.11-0.023-2.198 0.347-3.070 1.037-0.946 0.786-1.448 1.933-1.448 3.322 0.046 1.339 0.484 2.289 1.38 3.002 0.795 0.635 1.901 0.991 2.983 1.307 1.124 0.247 1.869 0.58 2.339 1.051 0.429 0.429 0.644 1.014 0.667 1.837v0.096c0.005 0.375-0.064 0.745-0.201 1.092-0.265 0.685-0.804 1.229-1.485 1.503-0.37 0.146-0.768 0.219-1.17 0.215-0.905 0-1.668-0.283-2.216-0.813-0.544-0.53-0.836-1.279-0.85-2.175l-0.014-0.676-1.923 0.009-0.037 0.868c-0.009 1.147 0.425 2.257 1.211 3.093 0.471 0.498 1.060 0.909 1.722 1.179 0.653 0.274 1.384 0.416 2.102 0.416 0.681 0 1.339-0.128 1.951-0.384 1.202-0.507 2.138-1.494 2.591-2.718 0.215-0.594 0.306-1.22 0.27-1.864-0.082-1.535-0.612-2.659-1.627-3.427zM107.682 2.417h-2.545l-0.781-2.417-0.786 2.417h-2.549l2.065 1.499-0.772 2.417 2.038-1.489 2.056 1.499-0.786-2.421 2.061-1.503zM95.913 22.949l-5.122-12.875h-2.124l0.553 1.393c0.046 0.114 1.457 3.696 2.865 7.246l2.705 6.84-2.828 6.451h2.184l8.832-20.519 0.567-1.407h-2.193l-5.437 12.87zM76.496 13.77c0.608-0.576 1.316-1.037 2.088-1.361 0.786-0.297 1.617-0.439 2.453-0.425 1.115 0 2.266 0.324 3.235 0.918 1.124 0.69 1.96 1.722 2.408 2.97l0.164 0.452h2.111l-0.32-0.909c-0.594-1.741-1.786-3.212-3.367-4.153-1.311-0.772-2.805-1.179-4.327-1.183-2.252 0-4.322 0.836-5.839 2.353-1.531 1.563-2.376 3.669-2.348 5.857 0 2.079 0.772 4.121 2.12 5.592 1.531 1.681 3.678 2.568 6.2 2.568 1.649 0.009 3.267-0.48 4.628-1.412 1.339-0.923 2.344-2.234 2.901-3.783l0.334-0.923h-2.124l-0.16 0.466c-0.32 0.932-1.019 1.85-1.923 2.517-1.069 0.786-2.38 1.211-3.792 1.22-0.813 0.005-1.622-0.146-2.385-0.448-0.74-0.292-1.416-0.731-1.992-1.288-0.594-0.576-1.060-1.266-1.371-2.033-0.32-0.777-0.48-1.627-0.48-2.508 0-0.859 0.169-1.745 0.493-2.549 0.324-0.795 0.772-1.462 1.293-1.937zM68.857 10.074v2.686c-0.429-0.484-0.918-0.914-1.457-1.279-1.384-0.927-3.015-1.416-4.683-1.407-3.102 0-5.017 1.421-6.081 2.613-2.796 3.189-2.796 7.954 0 11.143 1.060 1.192 2.979 2.613 6.086 2.613 1.608 0 3.057-0.384 4.313-1.142 0.69-0.416 1.302-0.941 1.828-1.563v2.7h1.96v-16.366h-1.965zM68.866 19.308c-0.064 0.398-0.164 0.772-0.302 1.124-0.407 1.206-1.183 2.257-2.216 3.002-1.042 0.726-2.284 1.11-3.555 1.101-1.91 0-3.532-0.672-4.683-1.946-1.046-1.202-1.622-2.737-1.622-4.327 0-1.741 0.63-3.331 1.777-4.487 1.147-1.151 2.723-1.791 4.445-1.791 1.284 0 2.504 0.361 3.536 1.046 1.019 0.681 1.8 1.64 2.248 2.796 0.142 0.338 0.251 0.699 0.324 1.078 0.073 0.384 0.11 0.786 0.11 1.215 0.023 0.393-0.005 0.79-0.064 1.188zM50.764 11.696c-0.544-0.544-1.202-0.964-1.923-1.224-1.627-0.562-3.399-0.521-4.994 0.119-1.092 0.457-2.024 1.234-2.664 2.225-0.142-0.27-0.315-0.521-0.512-0.754-0.553-0.653-1.252-1.165-2.047-1.489-0.845-0.343-1.745-0.512-2.659-0.503-0.608 0-1.544 0.096-2.527 0.544-0.649 0.302-1.22 0.704-1.709 1.215v-1.759h-1.96v16.366h1.96v-9.188c0-0.891 0.096-1.645 0.297-2.284 0.192-0.617 0.489-1.147 0.914-1.64 0.311-0.407 0.763-0.754 1.302-0.996 0.562-0.251 1.156-0.375 1.709-0.343 0.763 0.027 1.439 0.164 1.997 0.42 0.544 0.247 0.996 0.603 1.348 1.060 0.334 0.443 0.53 0.827 0.667 1.298 0.169 0.567 0.247 1.266 0.247 2.193l-0.005 9.489h1.96v-9.055c0-0.978 0.032-1.754 0.183-2.385 0.133-0.553 0.375-1.033 0.804-1.595 0.361-0.471 0.868-0.841 1.512-1.097 1.147-0.452 2.536-0.402 3.472-0.059 0.457 0.164 0.873 0.429 1.211 0.781 0.42 0.42 0.74 0.982 0.955 1.668 0.224 0.731 0.338 1.631 0.338 2.677v9.060h1.955v-9.055c0-1.256-0.146-2.371-0.439-3.303-0.26-0.9-0.74-1.718-1.394-2.385zM13.903 20.176l8.594 6.264-3.28-10.12 8.585-6.246h-10.613l-3.271-10.074-3.267 10.074h-10.65l8.626 6.259-3.267 10.079 8.544-6.236z"></path>
</symbol>
<symbol id="sprite-ebay-seeklogo" viewBox="0 0 84 32">
<path fill="#250625" style="fill: var(--color3, #250625)" d="M10.182 9.674c3.373 0 5.672 2.067 5.672 5.164h-11.636c0-3.288 3.001-5.164 5.964-5.164zM10.327 6.982c-5.633 0-10.327 2.39-10.327 9.6 0 5.712 3.156 9.308 10.472 9.308 8.612 0 9.163-5.672 9.163-5.672h-4.173s-0.894 3.054-5.244 3.054c-3.543 0-6.092-2.393-6.092-5.748h15.947v-2.105c-0.001-3.319-2.108-8.437-9.745-8.437z"></path>
<path fill="#250625" style="fill: var(--color3, #250625)" d="M30.396 9.792c3.822 0 6.254 2.838 6.254 6.646 0 4.083-2.807 6.754-6.227 6.754-4.081 0-6.282-3.187-6.282-6.718-0-3.291 1.975-6.682 6.255-6.682zM20.069 0.001v22.269c0 1.264-0.090 3.040-0.090 3.040h3.98s0.143-1.275 0.143-2.44c0 0 1.967 3.076 7.313 3.076 5.629 0 9.454-3.909 9.454-9.509 0-5.21-3.513-9.4-9.444-9.4-5.556 0-7.282 3-7.282 3v-10.036h-4.072z"></path>
<path fill="#250625" style="fill: var(--color3, #250625)" d="M55.413 16.873v1.163c0 1.518-0.935 5.291-6.45 5.291-3.019 0-4.313-1.507-4.313-3.255 0-3.179 4.359-3.2 10.762-3.2zM50.76 6.982c-8.475 0-9.019 4.64-9.019 5.382h4.218s0.221-2.71 4.509-2.71c2.786 0 4.944 1.276 4.944 3.727v0.873h-4.944c-6.565 0-10.036 1.921-10.036 5.818 0 3.836 3.207 5.923 7.54 5.923 5.906 0 7.809-3.263 7.809-3.263 0 1.297 0.099 2.577 0.099 2.577h3.75s-0.146-1.585-0.146-2.6v-8.768c0-5.749-4.637-6.959-8.726-6.959z"></path>
<path fill="#250625" style="fill: var(--color3, #250625)" d="M57.214 7.711h4.746l6.81 13.643 6.794-13.643h4.299l-12.376 24.29h-4.51l3.571-6.771-9.335-17.519zM82.075 5.978c0-0.17-0.003-0.312-0.012-0.439h0.321l0.015 0.218h0.009c0.073-0.115 0.206-0.251 0.454-0.251 0.194 0 0.345 0.109 0.409 0.272h0.006c0.052-0.082 0.112-0.142 0.182-0.184 0.082-0.057 0.175-0.088 0.296-0.088 0.245 0 0.493 0.167 0.493 0.639v0.869h-0.363v-0.814c0-0.245-0.085-0.391-0.263-0.391-0.127 0-0.221 0.091-0.26 0.197-0.009 0.036-0.018 0.082-0.018 0.124v0.884h-0.363v-0.854c0-0.206-0.082-0.351-0.254-0.351-0.139 0-0.233 0.109-0.266 0.212-0.015 0.036-0.021 0.079-0.021 0.121v0.872h-0.363v-1.035zM81.44 5.118v0.421h0.354v0.279h-0.354v0.651c0 0.179 0.049 0.272 0.191 0.272 0.064 0 0.112-0.009 0.145-0.018l0.006 0.285c-0.054 0.021-0.151 0.036-0.269 0.036-0.136 0-0.251-0.045-0.321-0.121-0.079-0.085-0.115-0.218-0.115-0.412v-0.693h-0.212v-0.279h0.212v-0.333l0.363-0.088z"></path>
</symbol>
<symbol id="sprite-amazon-seeklogo" viewBox="0 0 106 32">
<path fill="#250625" style="fill: var(--color3, #250625)" d="M65.876 25.026c-6.169 4.553-15.114 6.975-22.816 6.975-10.795 0-20.515-3.99-27.872-10.633-0.577-0.521-0.062-1.234 0.632-0.83 7.936 4.618 17.75 7.4 27.887 7.4 6.838 0 14.355-1.419 21.271-4.353 1.043-0.443 1.918 0.687 0.897 1.441z"></path>
<path fill="#250625" style="fill: var(--color3, #250625)" d="M68.444 22.096c0.789 1.011-0.878 5.175-1.622 7.034-0.226 0.563 0.259 0.79 0.767 0.364 3.31-2.769 4.166-8.571 3.488-9.409-0.672-0.83-6.459-1.546-9.99 0.934-0.544 0.381-0.45 0.907 0.152 0.835 1.988-0.238 6.416-0.77 7.205 0.241zM61.379 3.497c0.003 0.361 0.279 0.607 0.624 0.607l5.644 0.001-6.483 9.301c-0.395 0.596-0.401 1.266-0.401 1.657v2.445c0 0.355 0.393 0.759 0.769 0.558 3.676-1.953 8.088-1.763 11.414-0.021 0.407 0.213 0.796-0.197 0.796-0.551v-2.572c-0.034-0.347-0.147-0.702-0.573-0.941-1.887-1.061-4.084-1.372-6.162-1.323l5.596-7.989c0.519-0.718 0.81-1.171 0.813-1.517l0.001-2.067c-0.001-0.357-0.278-0.609-0.624-0.609l-10.802 0.001c-0.334-0.001-0.61 0.244-0.611 0.611v2.41zM21.974 18.551c0.35 0 0.634-0.27 0.634-0.607l0.001-8.941c0-1.952-0.092-4.65 2.27-4.65 2.331 0 2.025 2.769 2.025 4.65l0.003 8.942c0 0.323 0.26 0.585 0.59 0.606h3.283c0.35 0 0.634-0.27 0.634-0.607v-8.941c0-0.959-0.031-2.378 0.307-3.23s1.166-1.384 1.964-1.384c0.951 0 1.687 0.319 1.932 1.455 0.154 0.675 0.092 2.449 0.092 3.159l0.001 8.942c0 0.323 0.26 0.585 0.59 0.606h3.283c0.35 0 0.634-0.27 0.634-0.607l0.003-10.644c0-1.81 0.214-3.869-0.829-5.289-0.92-1.278-2.423-1.846-3.804-1.846-1.933 0-3.743 0.994-4.54 3.124-0.921-2.13-2.209-3.124-4.264-3.124-2.025 0-3.528 0.994-4.325 3.124h-0.061v-2.202c-0.020-0.308-0.277-0.55-0.598-0.566l-3.061 0.001c-0.35 0-0.634 0.27-0.634 0.607l-0.002 16.867c0.025 0.3 0.275 0.535 0.588 0.556h3.286zM82.745 3.608c-2.424 0-2.577 3.301-2.577 5.36s-0.031 6.46 2.547 6.46c2.547 0 2.67-3.55 2.67-5.714 0-1.42-0.061-3.124-0.491-4.472-0.368-1.171-1.105-1.633-2.148-1.633zM82.715 0.165c4.878 0 7.516 4.189 7.516 9.513 0 5.147-2.914 9.229-7.516 9.229-4.785 0-7.393-4.189-7.393-9.406 0-5.253 2.638-9.335 7.393-9.335zM96.557 18.551c0.35 0 0.634-0.27 0.64-0.607v-9.083c0-1.136 0.062-2.165 0.522-3.195 0.368-0.816 1.103-1.349 1.902-1.349 2.271 0 2.056 2.698 2.056 4.543v9.158c0.035 0.288 0.281 0.512 0.585 0.532h3.295c0.325 0 0.593-0.232 0.63-0.532v-10.614c0-1.633 0-3.904-0.859-5.253-0.921-1.455-2.363-1.988-3.835-1.988-2.271 0-3.559 1.1-4.479 3.408h-0.062v-2.58c-0.060-0.262-0.297-0.458-0.584-0.472l-3.049 0.001c-0.331 0-0.603 0.242-0.631 0.55l0.005 16.874c0 0.323 0.261 0.585 0.59 0.606h3.274zM56.088 18.516c0.656-0.584 1.849-1.62 2.52-2.183 0.268-0.218 0.221-0.574 0.011-0.873-0.601-0.83-1.241-1.506-1.241-3.046v-5.12c0-2.17 0.154-4.162-1.445-5.656-1.26-1.21-3.351-1.637-4.95-1.637-3.128 0-6.617 1.168-7.35 5.032-0.078 0.411 0.221 0.626 0.49 0.687l3.185 0.345c0.298-0.015 0.514-0.308 0.571-0.604 0.274-1.331 1.388-1.974 2.642-1.974 0.677 0 1.445 0.249 1.845 0.854 0.461 0.676 0.4 1.601 0.4 2.383v0.427c-1.906 0.214-4.397 0.356-6.18 1.138-2.060 0.889-3.505 2.703-3.505 5.371 0 3.415 2.152 5.122 4.919 5.122 2.336 0 3.614-0.551 5.419-2.389 0.597 0.864 0.792 1.283 1.883 2.19 0.245 0.132 0.559 0.119 0.777-0.076zM52.767 10.495c0 1.281 0.031 2.348-0.615 3.486-0.523 0.925-1.352 1.494-2.275 1.494-1.26 0-1.998-0.961-1.998-2.384 0-2.799 2.511-3.308 4.888-3.308v0.711zM13.005 18.516c0.656-0.584 1.849-1.62 2.52-2.183 0.267-0.218 0.22-0.574 0.010-0.873-0.601-0.83-1.24-1.506-1.24-3.046v-5.12c0-2.17 0.154-4.162-1.445-5.656-1.261-1.21-3.351-1.637-4.95-1.637-3.128 0-6.617 1.168-7.349 5.032-0.078 0.411 0.221 0.626 0.49 0.687l3.185 0.345c0.298-0.015 0.514-0.308 0.571-0.604 0.273-1.331 1.388-1.974 2.641-1.974 0.676 0 1.445 0.249 1.845 0.854 0.461 0.676 0.399 1.601 0.399 2.383v0.427c-1.906 0.214-4.396 0.356-6.179 1.138-2.060 0.889-3.505 2.703-3.505 5.371 0 3.415 2.152 5.122 4.919 5.122 2.337 0 3.614-0.551 5.418-2.389 0.597 0.864 0.792 1.283 1.884 2.19 0.245 0.132 0.559 0.119 0.776-0.076zM9.684 10.495c0 1.281 0.031 2.348-0.615 3.486-0.522 0.925-1.352 1.494-2.275 1.494-1.26 0-1.998-0.961-1.998-2.384 0-2.799 2.511-3.308 4.888-3.308v0.711z"></path>
</symbol>
<symbol id="sprite-pm" viewBox="0 0 51 32">
<path fill="#250625" style="fill: var(--color3, #250625)" d="M49.56 23.749c-1.444 0.206-2.991-0.258-3.507-1.599-0.284-0.774-0.309-1.547-0.103-2.346 0.516-1.857 1.083-3.713 1.624-5.544 0.284-1.006 0.567-2.037 0.851-3.094 0.052-0.232 0.052-0.49 0.052-0.748-0.026-0.258-0.206-0.387-0.438-0.284-0.284 0.129-0.567 0.258-0.799 0.464-0.799 0.774-1.315 1.702-1.857 2.63-0.954 1.624-1.908 3.275-2.914 4.899-0.335 0.541-0.825 1.031-1.289 1.496-0.206 0.206-0.49 0.335-0.774 0.413-0.541 0.18-1.031-0.103-1.16-0.645-0.103-0.464-0.129-0.954-0.103-1.444 0.129-1.444 0.645-2.759 0.98-4.126 0.129-0.438 0.232-0.877 0.284-1.367 0.026-0.206-0.052-0.516-0.181-0.593-0.155-0.103-0.464-0.052-0.619 0.077-0.438 0.361-0.851 0.748-1.212 1.186-1.109 1.444-1.908 3.068-2.733 4.667-0.567 1.057-1.109 2.114-1.65 3.172-0.052 0.103-0.103 0.206-0.155 0.284-0.232 0.284-0.284 0.799-0.722 0.825-0.696 0.052-1.367-0.103-1.857-0.67-0.413-0.516-0.49-1.16-0.309-1.753 0.284-1.083 0.696-2.14 1.083-3.197 0.438-1.212 0.98-2.398 1.238-3.687 0.077-0.413 0.103-0.851 0.103-1.264-0.026-0.722-0.413-1.212-1.109-1.418-0.67-0.206-1.367-0.155-2.011 0 0.103 0.438 0.232 0.851 0.284 1.289 0.155 1.238-0.103 2.424-0.567 3.558-1.16 2.682-2.991 4.848-5.467 6.421-0.748 0.464-1.521 0.799-2.45 0.774-1.186-0.052-1.985-0.774-2.14-1.934-0.155-1.109 0.103-2.166 0.567-3.223 0.928-2.037 2.424-3.713 4.151-5.106 0.593-0.49 1.238-0.902 1.857-1.367 0.077-0.052 0.129-0.103 0.232-0.181-0.387-0.284-0.825-0.309-1.264-0.258-0.799 0.155-1.444 0.567-2.037 1.057-1.521 1.264-2.682 2.811-3.765 4.461-1.521 2.372-2.501 4.951-3.378 7.607-0.799 2.372-1.573 4.719-2.398 7.065-0.181 0.49-0.438 0.98-0.696 1.444-0.129 0.258-0.309 0.335-0.619 0.284l-0.541-0.077c-1.186-0.284-1.753-1.186-1.418-2.45 0.335-1.238 0.799-2.45 1.238-3.662 1.16-3.094 2.372-6.214 3.533-9.36 0.593-1.599 1.083-3.249 1.392-4.925 0.155-0.825 0.258-1.624 0.103-2.45-0.052-0.206-0.129-0.387-0.206-0.593 1.238-0.258 2.243 0.309 2.682 1.238 0.438 0.902 0.516 1.882 0.361 2.888-0.026 0.103-0.026 0.181-0.052 0.284 0.026 0 0.052 0.026 0.052 0.026 0.103-0.129 0.18-0.232 0.284-0.335 0.928-1.186 1.985-2.218 3.249-2.991s2.604-1.16 4.1-1.135c0.645 0.026 1.264 0.181 1.805 0.49 0.103 0.052 0.284 0.052 0.387 0.026 1.006-0.309 2.063-0.567 3.146-0.516 1.341 0.052 2.45 0.516 3.094 1.805 0.309 0.67 0.438 1.367 0.464 2.063 0.026 0.593 0 1.186 0 1.805 0.077-0.129 0.181-0.258 0.258-0.387 0.645-1.006 1.341-1.986 2.321-2.707 0.696-0.516 1.444-0.851 2.321-0.851 0.748-0.026 1.238 0.309 1.521 0.954 0.413 0.851 0.464 1.779 0.413 2.707 0 0.181-0.026 0.335 0.026 0.516 0.155-0.284 0.284-0.541 0.464-0.825 0.696-1.238 1.392-2.45 2.346-3.455 0.722-0.774 1.521-1.367 2.604-1.547 1.599-0.284 2.785 0.645 2.811 2.295 0.026 1.006-0.258 1.986-0.541 2.914-0.49 1.573-1.031 3.146-1.521 4.745-0.284 0.954-0.464 1.934-0.49 2.94 0.052 0.825 0.206 1.625 0.774 2.346zM27.255 11.397l-0.206 0.103c-2.089 1.367-3.816 3.094-5.054 5.312-0.438 0.774-0.799 1.599-0.851 2.501-0.026 0.361 0 0.722 0.335 0.928s0.722 0.18 1.006-0.052c0.413-0.284 0.851-0.567 1.186-0.902 1.573-1.599 2.656-3.507 3.249-5.673 0.232-0.748 0.335-1.418 0.335-2.218zM16.786 1.625c-1.676 0.052-3.146 0.516-4.564 1.289-2.372 1.264-4.28 3.043-5.853 5.209-0.645 0.877-1.186 1.882-1.753 2.811-0.077 0.129-0.129 0.258-0.181 0.361 0.026 0.026 0.052 0.052 0.077 0.052 0.077-0.103 0.155-0.181 0.232-0.284 1.263-1.315 2.733-2.243 4.538-2.604 0.722-0.155 1.444-0.206 2.14 0 1.341 0.309 2.063 1.238 2.321 2.553 0.284 1.367 0.026 2.656-0.516 3.894-1.264 2.991-3.326 5.286-6.266 6.704-1.135 0.567-2.346 0.645-3.558 0.284-1.753-0.464-2.733-1.728-3.172-3.455-0.413-1.676-0.258-3.326 0.155-4.951 0.877-3.662 2.733-6.756 5.338-9.438 1.392-1.444 2.991-2.579 4.848-3.352 1.109-0.464 2.295-0.748 3.507-0.696 0.954 0.026 1.779 0.361 2.372 1.135 0.103 0.155 0.206 0.284 0.335 0.49zM3.043 18.102c0.026 0.593 0.103 1.186 0.413 1.702 0.335 0.541 0.851 0.748 1.47 0.645 0.696-0.129 1.263-0.49 1.779-0.928 1.521-1.341 2.579-3.017 3.275-4.873 0.387-1.006 0.645-2.063 0.516-3.172-0.129-1.083-0.799-1.624-1.857-1.418-0.387 0.077-0.799 0.258-1.16 0.438-1.238 0.696-2.114 1.702-2.888 2.862-0.902 1.418-1.521 2.991-1.547 4.745z"></path>
</symbol>
</defs>
</svg>
